<svg xmlns="http://www.w3.org/2000/svg" viewBox="0 0 512 512" width="512" height="512">
  <defs>
    <linearGradient id="bgGrad" x1="0%" y1="0%" x2="100%" y2="100%">
      <stop offset="0%" stop-color="#050811" />
      <stop offset="40%" stop-color="#0b1329" />
      <stop offset="100%" stop-color="#022119" />
    </linearGradient>
    <linearGradient id="emeraldGrad" x1="0%" y1="0%" x2="100%" y2="100%">
      <stop offset="0%" stop-color="#34d399" />
      <stop offset="50%" stop-color="#10b981" />
      <stop offset="100%" stop-color="#059669" />
    </linearGradient>
    <linearGradient id="goldGrad" x1="0%" y1="0%" x2="100%" y2="100%">
      <stop offset="0%" stop-color="#fbbf24" />
      <stop offset="100%" stop-color="#d97706" />
    </linearGradient>
    <linearGradient id="cardGrad" x1="0%" y1="0%" x2="100%" y2="100%">
      <stop offset="0%" stop-color="#1e293b" stop-opacity="0.8" />
      <stop offset="100%" stop-color="#0f172a" stop-opacity="0.9" />
    </linearGradient>
    <filter id="softGlow" x="-20%" y="-20%" width="140%" height="140%">
      <feGaussianBlur stdDeviation="10" result="blur" />
      <feComposite in="SourceGraphic" in2="blur" operator="over" />
    </filter>
    <filter id="goldGlow" x="-20%" y="-20%" width="140%" height="140%">
      <feGaussianBlur stdDeviation="8" result="blur" />
      <feComposite in="SourceGraphic" in2="blur" operator="over" />
    </filter>
  </defs>

  <!-- Full Bleed Background (Required by Google Play) -->
  <rect width="512" height="512" fill="url(#bgGrad)" />

  <!-- Background Ambient Glow & Grid Accents -->
  <circle cx="256" cy="180" r="160" fill="#10b981" opacity="0.08" filter="url(#softGlow)" />
  <circle cx="360" cy="360" r="120" fill="#f59e0b" opacity="0.06" filter="url(#softGlow)" />
  
  <!-- Subtle Architectural Grid Inside Safe Zone -->
  <g stroke="#334155" stroke-opacity="0.25" stroke-width="1">
    <line x1="96" y1="128" x2="416" y2="128" />
    <line x1="96" y1="256" x2="416" y2="256" />
    <line x1="96" y1="384" x2="416" y2="384" />
    <line x1="128" y1="96" x2="128" y2="416" />
    <line x1="256" y1="96" x2="256" y2="416" />
    <line x1="384" y1="96" x2="384" y2="416" />
  </g>

  <!-- Outer Safe-Zone Protective Ring -->
  <rect x="76" y="76" width="360" height="360" rx="72" fill="none" stroke="#10b981" stroke-width="3" stroke-opacity="0.2" stroke-dasharray="8 8" />

  <!-- Central Emblem: 3D Layered Wealth Canvas & Growth Node -->
  <g transform="translate(0, -6)">
    <!-- Back Diamond / Canvas Layer -->
    <path d="M256 100 L380 180 L380 320 L256 400 L132 320 L132 180 Z" 
          fill="url(#cardGrad)" 
          stroke="#10b981" 
          stroke-width="2.5" 
          stroke-opacity="0.4" />

    <!-- Upward Dynamic Growth Curves (Canvas Wings) -->
    <path d="M152 290 C180 200, 220 160, 256 160 C292 160, 332 200, 360 290" 
          fill="none" 
          stroke="#1e3a5f" 
          stroke-width="12" 
          stroke-linecap="round" />
    
    <path d="M165 275 C190 205, 225 170, 256 170 C287 170, 322 205, 347 275" 
          fill="none" 
          stroke="url(#emeraldGrad)" 
          stroke-width="8" 
          stroke-linecap="round" 
          filter="url(#softGlow)" />

    <!-- Double-Entry Balance Crossbar -->
    <line x1="180" y1="230" x2="332" y2="230" stroke="#047857" stroke-width="6" stroke-linecap="round" />
    <line x1="185" y1="230" x2="327" y2="230" stroke="#34d399" stroke-width="3" stroke-linecap="round" />

    <!-- Core Golden Wealth Node -->
    <circle cx="256" cy="245" r="46" fill="#0f172a" stroke="url(#goldGrad)" stroke-width="4" filter="url(#goldGlow)" />
    <circle cx="256" cy="245" r="38" fill="url(#goldGrad)" opacity="0.15" />
    
    <!-- Stylized Financial Monogram / Node Symbol -->
    <text x="256" y="260" text-anchor="middle" font-family="'Segoe UI', Roboto, Helvetica, Arial, sans-serif" font-weight="900" font-size="42" fill="url(#goldGrad)" filter="url(#goldGlow)">৳</text>

    <!-- Upward Momentum Arrow / Apex -->
    <path d="M256 122 L274 154 L238 154 Z" fill="url(#emeraldGrad)" filter="url(#softGlow)" />

    <!-- Left & Right Balancer Nodes -->
    <circle cx="180" cy="230" r="10" fill="#10b981" />
    <circle cx="332" cy="230" r="10" fill="#f59e0b" />
  </g>

  <!-- Typography Brand Mark in Base Safe Zone -->
  <text x="256" y="445" text-anchor="middle" font-family="'Segoe UI', Roboto, -apple-system, sans-serif" font-weight="800" font-size="24" fill="#ffffff" letter-spacing="3.5">MONEY CANVAS</text>
  <text x="256" y="470" text-anchor="middle" font-family="monospace" font-weight="600" font-size="12" fill="#10b981" letter-spacing="2.5">FINANCE &amp; LEDGER OS</text>
</svg>